<svg height="1024" width="1024" xmlns="http://www.w3.org/2000/svg"><path d="m817.14 326.074c1.015.316 1.63.565 2.419 1.309 2.591 2.44 4.847 5.207 7.387 7.689 9.333 9.117 18.622 18.254 27.852 27.481 19.425 19.416 38.939 38.734 57.973 58.535 6.338 6.594 12.797 13.047 19.323 19.455 4.053 3.981 8.386 7.862 12.141 12.124-.109 66.406-.11 132.816-.154 199.227-.014 20.036.02 40.072.158 60.107.098 14.326.814 28.949.079 43.249-.76 14.781-3.183 29.593-7.004 43.89-8.965 33.552-28.423 64.343-52.944 88.731-39.907 39.693-95.847 57.547-151.31 57.348l-376.384-.681c-5.581-7.454-13.27-13.735-19.978-20.197-7.285-7.019-14.287-14.378-21.481-21.499-21.346-21.129-43.019-41.931-64.467-62.949-10.912-10.694-21.566-21.642-32.658-32.153-8.912-8.444-17.46-17.246-26.342-25.709-4.978-4.743-11.588-9.143-15.314-15.014l97.207-.057 83.163.439-.269-48.481 51.016 48.958 134.349-.514 112.036.21c15.162.072 30.022-.133 45.064-2.286 37.247-5.332 74.494-23.037 101.224-49.622 30.645-30.479 50.353-71.294 53.902-114.505 1.597-19.45.507-39.175.463-58.669-.068-30.699.115-61.399.237-92.098.375-10.129.574-20.502-.307-30.606-2.145-24.576-9.685-49.922-22.057-71.279-4.489-7.749-10.332-14.355-15.002-21.903z" fill="#ec621e"/><path d="m356.676 944.538-69.521-.033c-21.868-.056-43.11-2.236-64.189-8.316-32.323-9.323-63.481-28.765-87.086-52.583-27.798-28.047-45.639-64.138-53.2726-102.683-4.8054-24.265-3.0963-49.928-3.0521-74.534.0551-30.657.0325-61.315.0289-91.972-.0131-113.04-.7955-226.133.0106-339.167.3808-53.397 22.8132-104.277 60.7692-141.532 24.95-24.489 58.749-43.161 92.986-50.7452 32.247-7.1436 65.99-5.4712 98.812-5.4828 33.597-.0119 67.195.0079 100.793.0042 106.379-.0116 212.802-1.0085 319.174.0648 51.467.5193 101.647 26.778 137.048 63.002 28.626 29.292 48.507 71.689 53.2 112.477 1.634 14.201 1.576 28.491 1.592 42.765.018 15.654.008 31.309.034 46.963.063 36.622.632 73.282.232 109.901-3.755-4.262-8.088-8.143-12.141-12.124-6.526-6.408-12.985-12.861-19.323-19.455-19.034-19.801-38.548-39.119-57.973-58.535-9.23-9.227-18.519-18.364-27.852-27.481-2.54-2.482-4.796-5.249-7.387-7.689-.789-.744-1.404-.993-2.419-1.309l.322.53c4.67 7.548 10.513 14.154 15.002 21.903 12.372 21.357 19.912 46.703 22.057 71.279.881 10.104.682 20.477.307 30.606-.122 30.699-.305 61.399-.237 92.098.044 19.494 1.134 39.219-.463 58.669-3.549 43.211-23.257 84.026-53.902 114.505-26.73 26.585-63.977 44.29-101.224 49.622-15.042 2.153-29.902 2.358-45.064 2.286l-112.036-.21-134.349.514-51.016-48.958.269 48.481-83.163-.439-97.207.057c3.726 5.871 10.336 10.271 15.314 15.014 8.882 8.463 17.43 17.265 26.342 25.709 11.092 10.511 21.746 21.459 32.658 32.153 21.448 21.018 43.121 41.82 64.467 62.949 7.194 7.121 14.196 14.48 21.481 21.499 6.708 6.462 14.397 12.743 19.978 20.197z" fill="#f49c3c"/><path d="m172.048 256.544 133.671-.019 52.877 53.476-.031-53.462 329.988.402c34.197 2.715 68.426 16.288 95.63 37.141 12.136 9.302 23.043 20.381 32.957 31.992l.322.53c4.67 7.548 10.513 14.154 15.002 21.903 12.372 21.357 19.912 46.703 22.057 71.279.881 10.104.682 20.477.307 30.606-3.044-2.918-5.595-6.398-8.595-9.424-17.791-17.939-34.984-36.454-52.597-54.569-4.524-4.653-8.427-9.766-13.235-14.167-1.172-1.073-2.072-1.974-3.726-2.168l-15.451-18.188c-25.662-25.858-61.084-39.573-97.095-41.73-6.295-.377-12.708.008-19.02.005-11.029-.006-22.059-.128-33.089-.134-28.669-.017-57.337-.02-86.006-.023l.08 32.022c-5.629-4.889-11.301-11.265-16.329-16.818-2.257-2.494-4.446-5.052-6.694-7.556-.5-.556-1.61-2.131-2.15-2.392-.55-.266-1.204-.204-1.806-.305l-.144.386.23 232.594-79.182 82.152-.016-32.962-63.996.396.53 121.407.269 48.481-83.163-.439-97.207.057c-1.647-.851-2.842-1.967-4.195-3.221z" fill="#255557"/><path d="m224.973 309.994 83.365.096.075 7.541c-7.902 6.092-14.767 14.344-21.815 21.457-14.148 14.28-28.291 28.533-42.556 42.696l.247 110.492-19.259 18.848z" fill="#fcefd0"/><path d="m308.338 310.09c8.299 4.975 15.578 13.833 22.434 20.684 8.627 8.622 17.433 17.135 25.751 26.055l-.397 124.567c-5.406-.001-11.31-.43-16.656.154l-31.326-.179.269-163.74z" fill="#1a2d30"/><path d="m419.518 310.156c19.789-.104 39.576-.105 59.366-.078 4.462.006 8.925.008 13.387.03 1.4.007 4.149-.216 5.479.211.423.135.745.482 1.118.723l.247 3.903-.144.386.23 232.594-79.182 82.152-.016-32.962-63.996.396.53 121.407.269 48.481-83.163-.439c-1.22-2.635-4.709-5.339-6.748-7.542-11.444-12.365-23.481-24.017-35.257-36.047-2.313-2.363-4.286-5.047-6.505-7.505-.265-9.065-.025-18.184-.06-27.256-.073-18.958-.128-37.905.014-56.86.093-12.42-1.001-25.702.337-37.999l-.394-82.627 19.259-18.848-.247-110.492c14.265-14.163 28.408-28.416 42.556-42.696 7.048-7.113 13.913-15.365 21.815-21.457l-.269 163.74 31.326.179c7.614 1.44 16.37.1 24.131.11 18.79.024 37.594.313 56.392.322z" fill="#ec621e"/><path d="m419.518 310.156c19.789-.104 39.576-.105 59.366-.078 4.462.006 8.925.008 13.387.03 1.4.007 4.149-.216 5.479.211.423.135.745.482 1.118.723l.247 3.903-.144.386-63.473 64.956.52 120.012-176.864-.403c11.578-3.772 22.981-8.803 34.333-13.273 4.683-1.844 9.614-4.713 14.657-5.252l31.326.179c7.614 1.44 16.37.1 24.131.11 18.79.024 37.594.313 56.392.322z" fill="#fcefd0"/><path d="m225.619 633.024 76.946-78.89c1.657-.25 2.65.138 4.161.707 26.418 1.138 53.291.664 79.753.679 6.937.003 13.874.001 20.811.003 4.188.002 8.552-.245 12.705.228l.008 41.364-63.996.396.53 121.407.269 48.481-83.163-.439c-1.22-2.635-4.709-5.339-6.748-7.542-11.444-12.365-23.481-24.017-35.257-36.047-2.313-2.363-4.286-5.047-6.505-7.505-.265-9.065-.025-18.184-.06-27.256-.073-18.958-.128-37.905.014-56.86.093-12.42-1.001-25.702.337-37.999z" fill="#1a2d30"/><path d="m225.619 633.024 76.946-78.89c1.657-.25 2.65.138 4.161.707l.291 160.945c-19.598-.019-39.196-.317-58.789-.308-7.25.003-16.072-.902-23.095.388-.265-9.065-.025-18.184-.06-27.256-.073-18.958-.128-37.905.014-56.86.093-12.42-1.001-25.702.337-37.999z" fill="#9b2b21"/><path d="m526.014 309.994c28.669.003 57.337.006 86.006.023 11.03.006 22.06.128 33.089.134 6.312.003 12.725-.382 19.02-.005 36.011 2.157 71.433 15.872 97.095 41.73l15.451 18.188c1.654.194 2.554 1.095 3.726 2.168 4.808 4.401 8.711 9.514 13.235 14.167 17.613 18.115 34.806 36.63 52.597 54.569 3 3.026 5.551 6.506 8.595 9.424-.122 30.699-.305 61.399-.237 92.098.044 19.494 1.134 39.219-.463 58.669-3.549 43.211-23.257 84.026-53.902 114.505-26.73 26.585-63.977 44.29-101.224 49.622-15.042 2.153-29.902 2.358-45.064 2.286l-112.036-.21-134.349.514-51.016-48.958-.53-121.407 63.996-.396.016 32.962 79.182-82.152-.23-232.594.144-.386c.602.101 1.256.039 1.806.305.54.261 1.65 1.836 2.15 2.392 2.248 2.504 4.437 5.062 6.694 7.556 5.028 5.553 10.7 11.929 16.329 16.818z" fill="#f6cd84"/><path d="m545.938 696.58c3.115-2.5 5.792-5.363 8.812-7.932 1.902-1.619 4.296-2.566 6.131-4.274 8.089-7.528 15.167-16.196 24.305-22.539-7.027 8.866-14.577 16.723-22.6 24.667-5.174 5.122-10.421 10.397-16.086 14.975-.604-1.032-.552-1.613-.661-2.797z" fill="#f49c3c"/><path d="m678.426 386.784c2.789-1.446 6.596-.219 9.539.695 23.447 7.289 45.119 24.631 56.314 46.552 4.079 7.987 6.761 16.483 7.881 25.391 1.025 8.16.841 16.259.851 24.466.013 10.639.012 21.279.007 31.919-.007 13.688-.079 27.369-.22 41.056-.082 8.028.186 16.079-.543 24.085-.569 6.26-2.077 12.188-4.06 18.138-2.795 8.384-6.986 15.446-11.926 22.736-13.962 20.607-39.285 33.876-63.3 38.215-14.227 2.571-28.168 1.987-42.535 1.953-14.848-.036-29.696-.002-44.545.014 3.9-3.856 7.687-7.815 11.544-11.711 2.441-2.465 5.473-4.977 7.225-7.962 4.525-1.153 9.348-.707 13.978-.687 5.785.024 11.57-.099 17.356-.059 8.9.861 18.312.832 27.229.306 13.834-.816 24.468-2.265 36.597-9.551 14.374-8.635 25.294-24.616 29.214-40.785 3.11-12.829 2.283-26.905 2.297-40.009.015-14.131.019-28.262.017-42.392-.001-11.537-.007-23.073-.019-34.609-.008-8.018.277-16.145-.748-24.113-1.03-8.006-3.441-17.024-7.69-23.953-8.589-18.731-25.735-32.15-44.463-39.695z" fill="#fcefd0"/><path d="m604.227 383.04c9.577-1.719 20.518-.283 30.273-.341 8.463-.051 17.112-.716 25.547.139 6.147.623 12.499 2.056 18.379 3.946 18.728 7.545 35.874 20.964 44.463 39.695-.478.091-.95.317-1.435.271-.892-.086-3.821-2.36-4.712-2.897-1.879-1.131-3.855-1.939-5.91-2.694-3.964-1.456-8.419-2.431-12.582-3.184-16.993-3.072-35.007-2.043-52.244-2.054l-.012 225.434c-3.253.006-6.797-.252-10.002.23-5.786-.04-11.571.083-17.356.059-4.63-.02-9.453-.466-13.978.687l-.659-259.002z" fill="#1a2d30"/><path d="m526.014 309.994c28.669.003 57.337.006 86.006.023 11.03.006 22.06.128 33.089.134 6.312.003 12.725-.382 19.02-.005 36.011 2.157 71.433 15.872 97.095 41.73l15.451 18.188c10.92 18.199 20.047 36.903 23.956 57.948 2.137 11.505 2.542 24.377 2.345 36.102l-.976.366c-1.194-1.292-1.456-3.544-1.807-5.223-.854-4.093-1.735-8.181-2.669-12.257-1.909-8.337-4.364-16.548-7.525-24.5-6.757-16.995-17.443-34.06-30.167-47.259-23.264-24.135-53.737-40.38-87.409-43.389-14.74-1.316-30.115-.371-44.936-.362-24.759.015-49.447-.075-74.198-.599 3.482 3.578 6.814 7.33 10.336 10.859 9.543 9.563 19.255 18.98 28.812 28.538 3.24 3.24 10.203 8.602 11.79 12.752l-.228.289c-5.925 2.058-10.911 5.53-15.999 9.112-13.723 9.661-25.592 20.94-33.047 36.266-4.362 8.966-7.458 17.926-8.605 27.859-1.067 9.234-.4 19.071-.393 28.383.012 16.889.023 33.779.035 50.668.039 53.652-.303 107.315-.052 160.963l-.099 2.1c-.145 2.354.115 2.97-1.723 4.57-4.937 4.297-11.1 9.582-17.298 11.711-1.217-1.235-.701-4.999-.701-6.806.009-79.593.044-159.186.07-238.779.015-42.429.58-84.943-.093-127.36z" fill="#fcefd0"/><path d="m646.006 415.921c17.237.011 35.251-1.018 52.244 2.054 4.163.753 8.618 1.728 12.582 3.184 2.055.755 4.031 1.563 5.91 2.694.891.537 3.82 2.811 4.712 2.897.485.046.957-.18 1.435-.271 4.249 6.929 6.66 15.947 7.69 23.953 1.025 7.968.74 16.095.748 24.113.012 11.536.018 23.072.019 34.609.002 14.13-.002 28.261-.017 42.392-.014 13.104.813 27.18-2.297 40.009-3.92 16.169-14.84 32.15-29.214 40.785-12.129 7.286-22.763 8.735-36.597 9.551-8.917.526-18.329.555-27.229-.306 3.205-.482 6.749-.224 10.002-.23z" fill="#255557"/><path d="m499.115 314.945c.602.101 1.256.039 1.806.305.54.261 1.65 1.836 2.15 2.392 2.248 2.504 4.437 5.062 6.694 7.556 5.028 5.553 10.7 11.929 16.329 16.818.673 42.417.108 84.931.093 127.36-.026 79.593-.061 159.186-.07 238.779 0 1.807-.516 5.571.701 6.806l117.432-.302c43.405.01 84.535-12.994 115.687-44.235 22.98-23.045 38.869-54.945 42.365-87.424 1.714-15.92.724-32.75.721-48.784-.005-23.367-.015-46.735-.047-70.102.197-11.725-.208-24.597-2.345-36.102-3.909-21.045-13.036-39.749-23.956-57.948 1.654.194 2.554 1.095 3.726 2.168 4.808 4.401 8.711 9.514 13.235 14.167 17.613 18.115 34.806 36.63 52.597 54.569 3 3.026 5.551 6.506 8.595 9.424-.122 30.699-.305 61.399-.237 92.098.044 19.494 1.134 39.219-.463 58.669-3.549 43.211-23.257 84.026-53.902 114.505-26.73 26.585-63.977 44.29-101.224 49.622-15.042 2.153-29.902 2.358-45.064 2.286l-112.036-.21-134.349.514-51.016-48.958-.53-121.407 63.996-.396.016 32.962 79.182-82.152-.23-232.594z" fill="#1a2d30"/><path d="m420.019 630.077 79.182-82.152-.019 168.068-78.984-.053c-.569-2.277-.241-5.241-.243-7.614-.005-5.391.001-10.783.006-16.174.02-20.692.036-41.383.058-62.075z" fill="#9b2b21"/><path d="m420.003 597.115.016 32.962c-.022 20.692-.038 41.383-.058 62.075-.005 5.391-.011 10.783-.006 16.174.002 2.373-.326 5.337.243 7.614 4.846 6.302 10.897 11.618 16.361 17.368 10.731 11.292 21.321 22.872 32.35 33.856 18.243-.159 36.49-.105 54.734-.104 4.181 0 8.363.002 12.544 0 1.67-.001 4.199-.322 5.715.302l-134.349.514-51.016-48.958-.53-121.407z" fill="#255557"/></svg>